# MagicaVoxel @ Ephtracy

# group
g wolf

# material
mtllib wolf.mtl
usemtl palette

# normals
vn -1 0 0
vn 1 0 0
vn 0 0 1
vn 0 0 -1
vn 0 -1 0
vn 0 1 0

# texcoords
vt 0.771484 0.5
vt 0.916016 0.5
vt 0.923828 0.5
vt 0.962891 0.5
vt 0.978516 0.5
vt 0.990234 0.5

# verts
v -6 5 -0
v -6 5 -1
v -6 6 -0
v -6 6 -1
v -4 5 1
v -4 5 -0
v -4 5 -1
v -4 5 -2
v -4 6 1
v -4 6 -0
v -4 6 -1
v -4 6 -2
v -4 7 1
v -4 7 -0
v -4 7 -1
v -4 7 -2
v -3 4 1
v -3 4 -2
v -3 5 2
v -3 5 1
v -3 5 -0
v -3 5 -1
v -3 5 -2
v -3 5 -3
v -3 6 2
v -3 6 1
v -3 6 -2
v -3 6 -3
v -3 7 1
v -3 7 -0
v -3 7 -1
v -3 7 -2
v -3 8 1
v -3 8 -0
v -3 8 -1
v -3 8 -2
v -2 0 1
v -2 0 -0
v -2 0 -1
v -2 0 -2
v -2 3 1
v -2 3 -0
v -2 3 -1
v -2 3 -2
v -2 4 2
v -2 4 1
v -2 4 -2
v -2 4 -3
v -2 5 2
v -2 5 1
v -2 5 -2
v -2 5 -3
v 2 2 1
v 2 2 -0
v 2 2 -1
v 2 2 -2
v 2 3 1
v 2 3 -0
v 2 3 -1
v 2 3 -2
v 3 0 1
v 3 0 -0
v 3 0 -1
v 3 0 -2
v 3 2 1
v 3 2 -0
v 3 2 -1
v 3 2 -2
v 5 2 -0
v 5 2 -1
v 5 3 -0
v 5 3 -1
v -2 7 1
v -2 7 -0
v -2 7 -1
v -2 7 -2
v -2 8 1
v -2 8 -0
v -2 8 -1
v -2 8 -2
v -1 0 1
v -1 0 -0
v -1 0 -1
v -1 0 -2
v -1 3 1
v -1 3 -0
v -1 3 -1
v -1 3 -2
v -1 5 2
v -1 5 1
v -1 5 -2
v -1 5 -3
v -1 6 2
v -1 6 1
v -1 6 -2
v -1 6 -3
v -1 7 1
v -1 7 -2
v 0 4 2
v 0 4 1
v 0 4 -2
v 0 4 -3
v 0 5 2
v 0 5 1
v 0 5 -0
v 0 5 -1
v 0 5 -2
v 0 5 -3
v 0 6 1
v 0 6 -0
v 0 6 -1
v 0 6 -2
v 2 5 -0
v 2 5 -1
v 2 6 -0
v 2 6 -1
v 3 4 1
v 3 4 -0
v 3 4 -1
v 3 4 -2
v 3 5 1
v 3 5 -0
v 3 5 -1
v 3 5 -2
v 4 0 1
v 4 0 -0
v 4 0 -1
v 4 0 -2
v 4 2 1
v 4 2 -0
v 4 2 -1
v 4 2 -2
v 4 3 -0
v 4 3 -1
v 4 4 1
v 4 4 -0
v 4 4 -1
v 4 4 -2
v 4 5 -0
v 4 5 -1
v 5 3 -0
v 5 3 -1
v 5 4 -0
v 5 4 -1
v 6 2 -0
v 6 2 -1
v 6 3 -0
v 6 3 -1
v -3 5 2
v -3 6 2
v -2 4 2
v -2 5 2
v -2 6 2
v -1 4 2
v -1 5 2
v -1 6 2
v 0 4 2
v 0 5 2
v -4 5 1
v -4 6 1
v -4 7 1
v -3 4 1
v -3 5 1
v -3 6 1
v -3 7 1
v -3 8 1
v -2 0 1
v -2 3 1
v -2 4 1
v -2 5 1
v -2 6 1
v -2 7 1
v -2 8 1
v -1 0 1
v -1 3 1
v -1 4 1
v -1 5 1
v -1 6 1
v -1 7 1
v 0 4 1
v 0 5 1
v 0 6 1
v 2 2 1
v 2 3 1
v 2 4 1
v 2 5 1
v 3 0 1
v 3 2 1
v 3 3 1
v 3 4 1
v 3 5 1
v 4 0 1
v 4 2 1
v 4 4 1
v -6 5 -0
v -6 6 -0
v -5 5 -0
v -5 6 -0
v -4 5 -0
v -4 6 -0
v 0 5 -0
v 0 6 -0
v 2 5 -0
v 2 6 -0
v 3 4 -0
v 3 5 -0
v 4 3 -0
v 4 4 -0
v 4 5 -0
v 5 2 -0
v 5 3 -0
v 5 4 -0
v 6 2 -0
v 6 3 -0
v -3 7 -1
v -3 8 -1
v -2 0 -1
v -2 3 -1
v -2 7 -1
v -2 8 -1
v -1 0 -1
v -1 3 -1
v 2 2 -1
v 2 3 -1
v 3 0 -1
v 3 2 -1
v 3 3 -1
v 4 0 -1
v 4 2 -1
v 4 3 -1
v -3 7 -0
v -3 8 -0
v -2 0 -0
v -2 3 -0
v -2 7 -0
v -2 8 -0
v -1 0 -0
v -1 3 -0
v 2 2 -0
v 2 3 -0
v 3 0 -0
v 3 2 -0
v 3 3 -0
v 4 0 -0
v 4 2 -0
v 4 3 -0
v -6 5 -1
v -6 6 -1
v -5 5 -1
v -5 6 -1
v -4 5 -1
v -4 6 -1
v 0 5 -1
v 0 6 -1
v 2 5 -1
v 2 6 -1
v 3 4 -1
v 3 5 -1
v 4 3 -1
v 4 4 -1
v 4 5 -1
v 5 2 -1
v 5 3 -1
v 5 4 -1
v 6 2 -1
v 6 3 -1
v -4 5 -2
v -4 6 -2
v -4 7 -2
v -3 4 -2
v -3 5 -2
v -3 6 -2
v -3 7 -2
v -3 8 -2
v -2 0 -2
v -2 3 -2
v -2 4 -2
v -2 5 -2
v -2 6 -2
v -2 7 -2
v -2 8 -2
v -1 0 -2
v -1 3 -2
v -1 4 -2
v -1 5 -2
v -1 6 -2
v -1 7 -2
v 0 4 -2
v 0 5 -2
v 0 6 -2
v 2 2 -2
v 2 3 -2
v 2 4 -2
v 2 5 -2
v 3 0 -2
v 3 2 -2
v 3 3 -2
v 3 4 -2
v 3 5 -2
v 4 0 -2
v 4 2 -2
v 4 4 -2
v -3 5 -3
v -3 6 -3
v -2 4 -3
v -2 5 -3
v -2 6 -3
v -1 4 -3
v -1 5 -3
v -1 6 -3
v 0 4 -3
v 0 5 -3
v -2 0 1
v -1 0 1
v 3 0 1
v 4 0 1
v -2 0 -0
v -1 0 -0
v 3 0 -0
v 4 0 -0
v -2 0 -1
v -1 0 -1
v 3 0 -1
v 4 0 -1
v -2 0 -2
v -1 0 -2
v 3 0 -2
v 4 0 -2
v 2 2 1
v 3 2 1
v 2 2 -0
v 3 2 -0
v 5 2 -0
v 6 2 -0
v 2 2 -1
v 3 2 -1
v 5 2 -1
v 6 2 -1
v 2 2 -2
v 3 2 -2
v -1 3 1
v 2 3 1
v -2 3 -0
v -1 3 -0
v 2 3 -0
v 3 3 -0
v 4 3 -0
v 5 3 -0
v -2 3 -1
v -1 3 -1
v 2 3 -1
v 3 3 -1
v 4 3 -1
v 5 3 -1
v -1 3 -2
v 2 3 -2
v -2 4 2
v -1 4 2
v 0 4 2
v -3 4 1
v -2 4 1
v -1 4 1
v 0 4 1
v -3 4 -2
v -2 4 -2
v -1 4 -2
v 0 4 -2
v -2 4 -3
v -1 4 -3
v 0 4 -3
v -3 5 2
v -2 5 2
v -4 5 1
v -3 5 1
v -2 5 1
v -6 5 -0
v -5 5 -0
v -4 5 -0
v -3 5 -0
v -6 5 -1
v -5 5 -1
v -4 5 -1
v -3 5 -1
v -4 5 -2
v -3 5 -2
v -2 5 -2
v -3 5 -3
v -2 5 -3
v 5 3 -0
v 6 3 -0
v 5 3 -1
v 6 3 -1
v 3 4 1
v 4 4 1
v 3 4 -0
v 4 4 -0
v 5 4 -0
v 3 4 -1
v 4 4 -1
v 5 4 -1
v 3 4 -2
v 4 4 -2
v -1 5 2
v 0 5 2
v -1 5 1
v 0 5 1
v 2 5 1
v 3 5 1
v 0 5 -0
v 2 5 -0
v 3 5 -0
v 4 5 -0
v 0 5 -1
v 2 5 -1
v 3 5 -1
v 4 5 -1
v -1 5 -2
v 0 5 -2
v 2 5 -2
v 3 5 -2
v -1 5 -3
v 0 5 -3
v -3 6 2
v -2 6 2
v -1 6 2
v -3 6 1
v -2 6 1
v -1 6 1
v 0 6 1
v -6 6 -0
v -5 6 -0
v -4 6 -0
v 0 6 -0
v 2 6 -0
v -6 6 -1
v -5 6 -1
v -4 6 -1
v 0 6 -1
v 2 6 -1
v -3 6 -2
v -2 6 -2
v -1 6 -2
v 0 6 -2
v -3 6 -3
v -2 6 -3
v -1 6 -3
v -4 7 1
v -3 7 1
v -2 7 1
v -1 7 1
v -4 7 -0
v -3 7 -0
v -2 7 -0
v -4 7 -1
v -3 7 -1
v -2 7 -1
v -4 7 -2
v -3 7 -2
v -2 7 -2
v -1 7 -2
v -3 8 1
v -2 8 1
v -3 8 -0
v -2 8 -0
v -3 8 -1
v -2 8 -1
v -3 8 -2
v -2 8 -2

# faces
f 3/6/1 2/6/1 1/6/1
f 4/6/1 2/6/1 3/6/1
f 9/2/1 6/2/1 5/2/1
f 10/2/1 6/2/1 9/2/1
f 11/2/1 8/2/1 7/2/1
f 12/2/1 8/2/1 11/2/1
f 13/1/1 10/1/1 9/1/1
f 14/2/1 11/2/1 10/2/1
f 14/1/1 10/1/1 13/1/1
f 15/1/1 12/1/1 11/1/1
f 15/2/1 11/2/1 14/2/1
f 16/1/1 12/1/1 15/1/1
f 20/5/1 18/5/1 17/5/1
f 21/5/1 18/5/1 20/5/1
f 22/5/1 18/5/1 21/5/1
f 23/5/1 18/5/1 22/5/1
f 25/2/1 20/2/1 19/2/1
f 26/2/1 20/2/1 25/2/1
f 27/2/1 24/2/1 23/2/1
f 28/2/1 24/2/1 27/2/1
f 33/5/1 30/5/1 29/5/1
f 34/5/1 30/5/1 33/5/1
f 35/5/1 32/5/1 31/5/1
f 36/5/1 32/5/1 35/5/1
f 41/2/1 38/2/1 37/2/1
f 42/2/1 38/2/1 41/2/1
f 43/2/1 40/2/1 39/2/1
f 44/2/1 40/2/1 43/2/1
f 46/3/1 42/3/1 41/3/1
f 46/3/1 43/3/1 42/3/1
f 46/3/1 44/3/1 43/3/1
f 47/3/1 44/3/1 46/3/1
f 49/5/1 46/5/1 45/5/1
f 50/5/1 46/5/1 49/5/1
f 51/5/1 48/5/1 47/5/1
f 52/5/1 48/5/1 51/5/1
f 57/2/1 54/2/1 53/2/1
f 58/2/1 54/2/1 57/2/1
f 59/2/1 56/2/1 55/2/1
f 60/2/1 56/2/1 59/2/1
f 65/2/1 62/2/1 61/2/1
f 66/2/1 62/2/1 65/2/1
f 67/2/1 64/2/1 63/2/1
f 68/2/1 64/2/1 67/2/1
f 71/6/1 70/6/1 69/6/1
f 72/6/1 70/6/1 71/6/1
f 73/5/2 74/5/2 77/5/2
f 77/5/2 74/5/2 78/5/2
f 75/5/2 76/5/2 79/5/2
f 79/5/2 76/5/2 80/5/2
f 81/2/2 82/2/2 85/2/2
f 85/2/2 82/2/2 86/2/2
f 83/2/2 84/2/2 87/2/2
f 87/2/2 84/2/2 88/2/2
f 89/5/2 90/5/2 93/5/2
f 93/5/2 90/5/2 94/5/2
f 91/5/2 92/5/2 95/5/2
f 95/5/2 92/5/2 96/5/2
f 94/5/2 95/5/2 97/5/2
f 97/5/2 95/5/2 98/5/2
f 99/3/2 100/3/2 103/3/2
f 103/3/2 100/3/2 104/3/2
f 101/3/2 102/3/2 107/3/2
f 107/3/2 102/3/2 108/3/2
f 104/5/2 105/5/2 109/5/2
f 109/5/2 105/5/2 110/5/2
f 106/5/2 107/5/2 111/5/2
f 111/5/2 107/5/2 112/5/2
f 113/5/2 114/5/2 115/5/2
f 115/5/2 114/5/2 116/5/2
f 117/5/2 118/5/2 121/5/2
f 121/5/2 118/5/2 122/5/2
f 119/5/2 120/5/2 123/5/2
f 123/5/2 120/5/2 124/5/2
f 125/2/2 126/2/2 129/2/2
f 129/2/2 126/2/2 130/2/2
f 127/2/2 128/2/2 131/2/2
f 131/2/2 128/2/2 132/2/2
f 129/3/2 130/3/2 133/3/2
f 131/3/2 132/3/2 134/3/2
f 129/3/2 133/3/2 135/3/2
f 135/3/2 133/3/2 136/3/2
f 134/3/2 132/3/2 137/3/2
f 137/3/2 132/3/2 138/3/2
f 136/5/2 137/5/2 139/5/2
f 139/5/2 137/5/2 140/5/2
f 141/5/2 142/5/2 143/5/2
f 143/5/2 142/5/2 144/5/2
f 145/6/2 146/6/2 147/6/2
f 147/6/2 146/6/2 148/6/2
f 152/2/3 150/2/3 149/2/3
f 153/2/3 150/2/3 152/2/3
f 154/5/3 152/5/3 151/5/3
f 154/5/3 153/5/3 152/5/3
f 155/5/3 153/5/3 154/5/3
f 156/5/3 153/5/3 155/5/3
f 157/3/3 155/3/3 154/3/3
f 158/3/3 155/3/3 157/3/3
f 163/2/3 160/2/3 159/2/3
f 164/1/3 161/1/3 160/1/3
f 164/2/3 160/2/3 163/2/3
f 165/1/3 161/1/3 164/1/3
f 169/5/3 163/5/3 162/5/3
f 170/5/3 163/5/3 169/5/3
f 171/2/3 165/2/3 164/2/3
f 172/5/3 166/5/3 165/5/3
f 172/2/3 165/2/3 171/2/3
f 173/5/3 166/5/3 172/5/3
f 174/2/3 168/2/3 167/2/3
f 175/3/3 169/3/3 168/3/3
f 175/2/3 168/2/3 174/2/3
f 176/3/3 169/3/3 175/3/3
f 178/5/3 172/5/3 171/5/3
f 179/5/3 172/5/3 178/5/3
f 180/3/3 176/3/3 175/3/3
f 181/5/3 178/5/3 177/5/3
f 182/5/3 178/5/3 181/5/3
f 184/3/3 180/3/3 175/3/3
f 184/3/3 181/3/3 180/3/3
f 185/3/3 181/3/3 184/3/3
f 186/3/3 181/3/3 185/3/3
f 188/2/3 184/2/3 183/2/3
f 189/3/3 185/3/3 184/3/3
f 189/2/3 184/2/3 188/2/3
f 190/5/3 186/5/3 185/5/3
f 190/3/3 185/3/3 189/3/3
f 191/5/3 186/5/3 190/5/3
f 192/2/3 188/2/3 187/2/3
f 193/3/3 189/3/3 188/3/3
f 193/2/3 188/2/3 192/2/3
f 193/3/3 190/3/3 189/3/3
f 194/3/3 190/3/3 193/3/3
f 197/6/3 196/6/3 195/6/3
f 198/6/3 196/6/3 197/6/3
f 199/2/3 198/2/3 197/2/3
f 200/2/3 198/2/3 199/2/3
f 203/5/3 202/5/3 201/5/3
f 204/5/3 202/5/3 203/5/3
f 208/5/3 206/5/3 205/5/3
f 209/5/3 206/5/3 208/5/3
f 211/5/3 208/5/3 207/5/3
f 212/5/3 208/5/3 211/5/3
f 213/6/3 211/6/3 210/6/3
f 214/6/3 211/6/3 213/6/3
f 219/5/3 216/5/3 215/5/3
f 220/5/3 216/5/3 219/5/3
f 221/2/3 218/2/3 217/2/3
f 222/2/3 218/2/3 221/2/3
f 226/2/3 224/2/3 223/2/3
f 227/2/3 224/2/3 226/2/3
f 228/2/3 226/2/3 225/2/3
f 229/3/3 227/3/3 226/3/3
f 229/2/3 226/2/3 228/2/3
f 230/3/3 227/3/3 229/3/3
f 231/5/4 232/5/4 235/5/4
f 235/5/4 232/5/4 236/5/4
f 233/2/4 234/2/4 237/2/4
f 237/2/4 234/2/4 238/2/4
f 239/2/4 240/2/4 242/2/4
f 242/2/4 240/2/4 243/2/4
f 241/2/4 242/2/4 244/2/4
f 242/3/4 243/3/4 245/3/4
f 244/2/4 242/2/4 245/2/4
f 245/3/4 243/3/4 246/3/4
f 247/6/4 248/6/4 249/6/4
f 249/6/4 248/6/4 250/6/4
f 249/2/4 250/2/4 251/2/4
f 251/2/4 250/2/4 252/2/4
f 253/5/4 254/5/4 255/5/4
f 255/5/4 254/5/4 256/5/4
f 257/5/4 258/5/4 260/5/4
f 260/5/4 258/5/4 261/5/4
f 259/5/4 260/5/4 263/5/4
f 263/5/4 260/5/4 264/5/4
f 262/6/4 263/6/4 265/6/4
f 265/6/4 263/6/4 266/6/4
f 267/2/4 268/2/4 271/2/4
f 268/1/4 269/1/4 272/1/4
f 271/2/4 268/2/4 272/2/4
f 272/1/4 269/1/4 273/1/4
f 270/5/4 271/5/4 277/5/4
f 277/5/4 271/5/4 278/5/4
f 272/2/4 273/2/4 279/2/4
f 273/5/4 274/5/4 280/5/4
f 279/2/4 273/2/4 280/2/4
f 280/5/4 274/5/4 281/5/4
f 275/2/4 276/2/4 282/2/4
f 276/3/4 277/3/4 283/3/4
f 282/2/4 276/2/4 283/2/4
f 283/3/4 277/3/4 284/3/4
f 279/5/4 280/5/4 286/5/4
f 286/5/4 280/5/4 287/5/4
f 283/3/4 284/3/4 288/3/4
f 285/5/4 286/5/4 289/5/4
f 289/5/4 286/5/4 290/5/4
f 283/3/4 288/3/4 292/3/4
f 288/3/4 289/3/4 292/3/4
f 292/3/4 289/3/4 293/3/4
f 293/3/4 289/3/4 294/3/4
f 291/2/4 292/2/4 296/2/4
f 292/3/4 293/3/4 297/3/4
f 296/2/4 292/2/4 297/2/4
f 293/5/4 294/5/4 298/5/4
f 297/3/4 293/3/4 298/3/4
f 298/5/4 294/5/4 299/5/4
f 295/2/4 296/2/4 300/2/4
f 296/3/4 297/3/4 301/3/4
f 300/2/4 296/2/4 301/2/4
f 297/3/4 298/3/4 301/3/4
f 301/3/4 298/3/4 302/3/4
f 303/2/4 304/2/4 306/2/4
f 306/2/4 304/2/4 307/2/4
f 305/5/4 306/5/4 308/5/4
f 306/5/4 307/5/4 308/5/4
f 308/5/4 307/5/4 309/5/4
f 309/5/4 307/5/4 310/5/4
f 308/3/4 309/3/4 311/3/4
f 311/3/4 309/3/4 312/3/4
f 317/2/5 314/2/5 313/2/5
f 318/2/5 314/2/5 317/2/5
f 319/2/5 316/2/5 315/2/5
f 320/2/5 316/2/5 319/2/5
f 325/2/5 322/2/5 321/2/5
f 326/2/5 322/2/5 325/2/5
f 327/2/5 324/2/5 323/2/5
f 328/2/5 324/2/5 327/2/5
f 331/2/5 330/2/5 329/2/5
f 332/2/5 330/2/5 331/2/5
f 337/6/5 334/6/5 333/6/5
f 338/6/5 334/6/5 337/6/5
f 339/2/5 336/2/5 335/2/5
f 340/2/5 336/2/5 339/2/5
f 344/3/5 342/3/5 341/3/5
f 345/3/5 342/3/5 344/3/5
f 349/3/5 344/3/5 343/3/5
f 349/3/5 345/3/5 344/3/5
f 349/3/5 346/3/5 345/3/5
f 350/3/5 346/3/5 349/3/5
f 351/3/5 346/3/5 350/3/5
f 352/5/5 348/5/5 347/5/5
f 352/3/5 346/3/5 351/3/5
f 352/5/5 347/5/5 346/5/5
f 353/5/5 348/5/5 352/5/5
f 354/5/5 348/5/5 353/5/5
f 355/3/5 351/3/5 350/3/5
f 356/3/5 351/3/5 355/3/5
f 361/5/5 358/5/5 357/5/5
f 362/3/5 359/3/5 358/3/5
f 362/5/5 358/5/5 361/5/5
f 363/3/5 359/3/5 362/3/5
f 364/5/5 361/5/5 360/5/5
f 365/5/5 361/5/5 364/5/5
f 368/5/5 366/5/5 365/5/5
f 369/3/5 367/3/5 366/3/5
f 369/5/5 366/5/5 368/5/5
f 370/3/5 367/3/5 369/3/5
f 374/2/5 372/2/5 371/2/5
f 375/2/5 372/2/5 374/2/5
f 378/2/5 374/2/5 373/2/5
f 379/2/5 374/2/5 378/2/5
f 380/6/5 377/6/5 376/6/5
f 381/2/5 378/2/5 377/2/5
f 381/6/5 377/6/5 380/6/5
f 382/4/5 379/4/5 378/4/5
f 382/2/5 378/2/5 381/2/5
f 383/4/5 379/4/5 382/4/5
f 384/2/5 383/2/5 382/2/5
f 385/2/5 383/2/5 384/2/5
f 387/2/5 386/2/5 385/2/5
f 388/2/5 386/2/5 387/2/5
f 389/6/6 390/6/6 391/6/6
f 391/6/6 390/6/6 392/6/6
f 393/3/6 394/3/6 395/3/6
f 395/3/6 394/3/6 396/3/6
f 396/5/6 397/5/6 399/5/6
f 399/5/6 397/5/6 400/5/6
f 398/3/6 399/3/6 401/3/6
f 401/3/6 399/3/6 402/3/6
f 403/3/6 404/3/6 405/3/6
f 405/3/6 404/3/6 406/3/6
f 406/3/6 407/3/6 409/3/6
f 407/5/6 408/5/6 410/5/6
f 409/3/6 407/3/6 410/3/6
f 410/5/6 408/5/6 411/5/6
f 411/5/6 412/5/6 414/5/6
f 410/5/6 411/5/6 414/5/6
f 414/5/6 412/5/6 415/5/6
f 415/5/6 412/5/6 416/5/6
f 413/3/6 414/3/6 418/3/6
f 414/5/6 415/5/6 419/5/6
f 418/3/6 414/3/6 419/3/6
f 419/5/6 415/5/6 420/5/6
f 417/3/6 418/3/6 421/3/6
f 421/3/6 418/3/6 422/3/6
f 423/2/6 424/2/6 426/2/6
f 424/5/6 425/5/6 427/5/6
f 426/2/6 424/2/6 427/2/6
f 427/5/6 425/5/6 428/5/6
f 428/5/6 429/5/6 433/5/6
f 430/6/6 431/6/6 435/6/6
f 431/2/6 432/2/6 436/2/6
f 435/6/6 431/6/6 436/6/6
f 436/2/6 432/2/6 437/2/6
f 433/5/6 434/5/6 438/5/6
f 428/5/6 433/5/6 438/5/6
f 438/5/6 434/5/6 439/5/6
f 428/5/6 438/5/6 442/5/6
f 442/5/6 438/5/6 443/5/6
f 440/2/6 441/2/6 444/2/6
f 441/5/6 442/5/6 445/5/6
f 444/2/6 441/2/6 445/2/6
f 445/5/6 442/5/6 446/5/6
f 447/1/6 448/1/6 451/1/6
f 451/1/6 448/1/6 452/1/6
f 449/5/6 450/5/6 453/5/6
f 451/2/6 452/2/6 454/2/6
f 452/5/6 453/5/6 455/5/6
f 454/2/6 452/2/6 455/2/6
f 453/5/6 450/5/6 456/5/6
f 455/5/6 453/5/6 456/5/6
f 454/1/6 455/1/6 457/1/6
f 457/1/6 455/1/6 458/1/6
f 456/5/6 450/5/6 459/5/6
f 459/5/6 450/5/6 460/5/6
f 461/5/6 462/5/6 463/5/6
f 463/5/6 462/5/6 464/5/6
f 465/5/6 466/5/6 467/5/6
f 467/5/6 466/5/6 468/5/6
